# xmcd
#
# Track frame offsets:
#	150
#	42233
#	72332
#	102356
#	133250
#	171203
#	205268
#	231614
#
# Disc length: 3348 seconds
#
# Revision: 0
# Processed by: cddbd v1.5.2PL0 Copyright (c) Steve Scherf et al.
# Submitted via: EasyCDDAExtractor 16.1.0.1
#
DISCID=790d1208
DTITLE=Camille Sopran'n Et Son Map VIking's - Je Madame
DYEAR=1992
DGENRE=Zouk
TTITLE0=Je Madame (Version Longue)
TTITLE1=Debarquement (Version Longue)
TTITLE2=Mikolasie (Version Longue)
TTITLE3=Show Map (Version Longue)
TTITLE4=Oscar Pou Carlos. B
TTITLE5=Ma Famille, Mon Refuge Ma Maison
TTITLE6=Je Madame (Verison Courte)
TTITLE7=Mikolasie (Version Courte)
EXTD=
EXTT0=
EXTT1=
EXTT2=
EXTT3=
EXTT4=
EXTT5=
EXTT6=
EXTT7=
PLAYORDER=
